<mxfile host="65bd71144e">
    <diagram id="XZM4NLRFjbnkh6M9HRye" name="第 1 页">
        <mxGraphModel dx="1148" dy="792" grid="1" gridSize="10" guides="1" tooltips="1" connect="1" arrows="1" fold="1" page="1" pageScale="1" pageWidth="827" pageHeight="1169" math="0" shadow="0">
            <root>
                <mxCell id="0"/>
                <mxCell id="1" parent="0"/>
                <mxCell id="2" value="" style="rounded=0;whiteSpace=wrap;html=1;" vertex="1" parent="1">
                    <mxGeometry x="30" y="50" width="790" height="520" as="geometry"/>
                </mxCell>
                <mxCell id="3" value="const name = “pzq”&amp;nbsp; const age = “23”&lt;br&gt;const info = {&lt;br&gt;&lt;span style=&quot;&quot;&gt;&#9;&lt;/span&gt;&lt;span style=&quot;&quot;&gt;&#9;&lt;/span&gt;&lt;span style=&quot;&quot;&gt;&#9;&lt;/span&gt;&lt;span style=&quot;white-space: pre;&quot;&gt;&#9;&lt;/span&gt;&lt;span style=&quot;white-space: pre;&quot;&gt;&#9;&lt;/span&gt;&lt;span style=&quot;white-space: pre;&quot;&gt;&#9;&lt;/span&gt;position：“chengdu”，&lt;br&gt;&lt;span style=&quot;white-space: pre;&quot;&gt;&#9;&lt;/span&gt;&lt;span style=&quot;white-space: pre;&quot;&gt;&#9;&lt;/span&gt;&lt;span style=&quot;white-space: pre;&quot;&gt;&#9;&lt;/span&gt;message：“干活”&lt;br&gt;&lt;span style=&quot;white-space: pre;&quot;&gt;&#9;&lt;/span&gt;&lt;span style=&quot;white-space: pre;&quot;&gt;&#9;&lt;/span&gt;&amp;nbsp; &amp;nbsp; }&amp;nbsp;" style="rounded=1;whiteSpace=wrap;html=1;fillColor=#f5f5f5;fontColor=#333333;strokeColor=#666666;align=left;" vertex="1" parent="1">
                    <mxGeometry x="30" y="585" width="790" height="215" as="geometry"/>
                </mxCell>
                <mxCell id="4" value="info=内存地址&lt;br&gt;age=“23”&lt;br&gt;name=“pzq”&lt;br&gt;&lt;br&gt;&lt;div style=&quot;&quot;&gt;&lt;/div&gt;" style="rounded=0;whiteSpace=wrap;html=1;fontColor=#333333;fillColor=#f5f5f5;strokeColor=#666666;align=center;" vertex="1" parent="1">
                    <mxGeometry x="50" y="110" width="170" height="440" as="geometry"/>
                </mxCell>
                <mxCell id="5" value="" style="rounded=0;whiteSpace=wrap;html=1;fontColor=#333333;fillColor=#f5f5f5;strokeColor=#666666;" vertex="1" parent="1">
                    <mxGeometry x="370" y="110" width="430" height="440" as="geometry"/>
                </mxCell>
                <mxCell id="6" value="&lt;font color=&quot;#020203&quot;&gt;栈&lt;/font&gt;" style="text;html=1;strokeColor=#A50040;fillColor=#d80073;align=center;verticalAlign=middle;whiteSpace=wrap;rounded=0;fontColor=#ffffff;" vertex="1" parent="1">
                    <mxGeometry x="100" y="60" width="60" height="30" as="geometry"/>
                </mxCell>
                <mxCell id="7" value="&lt;font color=&quot;#020203&quot;&gt;堆&lt;/font&gt;" style="text;html=1;strokeColor=#A50040;fillColor=#d80073;align=center;verticalAlign=middle;whiteSpace=wrap;rounded=0;fontColor=#ffffff;" vertex="1" parent="1">
                    <mxGeometry x="555" y="60" width="60" height="30" as="geometry"/>
                </mxCell>
                <mxCell id="8" value="position：“chengdu”&lt;br&gt;message=“干活”" style="rounded=1;whiteSpace=wrap;html=1;labelBackgroundColor=#33FFFF;fontColor=#ffffff;fillColor=#a0522d;strokeColor=#6D1F00;" vertex="1" parent="1">
                    <mxGeometry x="390" y="140" width="120" height="60" as="geometry"/>
                </mxCell>
                <mxCell id="9" value="" style="shape=flexArrow;endArrow=block;html=1;fontColor=#020203;entryX=0;entryY=0.5;entryDx=0;entryDy=0;fillColor=#e51400;strokeColor=#B20000;" edge="1" parent="1" target="8">
                    <mxGeometry width="50" height="50" relative="1" as="geometry">
                        <mxPoint x="180" y="310" as="sourcePoint"/>
                        <mxPoint x="230" y="260" as="targetPoint"/>
                    </mxGeometry>
                </mxCell>
            </root>
        </mxGraphModel>
    </diagram>
</mxfile>